<?xml version="1.0" encoding="utf-8"?>
<!-- Generator: Adobe Illustrator 26.3.1, SVG Export Plug-In . SVG Version: 6.00 Build 0)  -->
<svg version="1.1" id="Layer_1" xmlns="http://www.w3.org/2000/svg" xmlns:xlink="http://www.w3.org/1999/xlink" x="0px" y="0px"
	 viewBox="0 0 1366 768" style="enable-background:new 0 0 1366 768;" xml:space="preserve">
<style type="text/css">
	.st0{fill:#D3A940;}
	.st1{fill:#012335;}
</style>
<g>
	<g>
		<circle class="st0" cx="410.74" cy="504.05" r="16.81"/>
		<g>
			<path class="st1" d="M413.74,351.11L306.76,458.1c-7.47,7.47-19.58,7.47-27.06,0l-32.38-32.38c-7.83-7.83-20.51-7.83-28.34,0
				l-15.93,15.93l71.48,71.48c10.33,10.33,27.07,10.33,37.4,0l11.4-11.4l90.42-90.42C430.37,394.68,430.37,367.73,413.74,351.11
				L413.74,351.11z"/>
			<path class="st0" d="M274.93,392.93c10.31,10.31,27.01,10.33,37.35,0.05l56.81-56.53c8.3-8.3,8.3-21.77,0-30.07l-15.06-15.06
				l-0.04,0.04l-30.25-30.25c-16.62-16.62-43.57-16.62-60.19,0l0,0l54.06,54.06c3.47,3.47,3.47,9.1,0,12.57l-17.55,17.55
				c-3.47,3.47-9.1,3.47-12.57,0l-39.12-39.12c-8.21-8.21-21.51-8.22-29.73-0.02l-45.51,45.37c-16.62,16.62-16.62,43.57,0,60.19l0,0
				l46.78-46.78c7.46-7.46,19.57-7.46,27.03,0L274.93,392.93z"/>
		</g>
	</g>
	<g>
		<path class="st0" d="M708.28,291.49c-7.65-6.52-18.39-9.79-32.22-9.79c-7.2,0-14.29,0.93-21.26,2.78
			c-6.98,1.86-12.94,4.58-17.88,8.18l9.28,18.39c3.37-2.59,7.39-4.64,12.06-6.16c4.67-1.52,9.42-2.28,14.26-2.28
			c7.09,0,12.34,1.58,15.77,4.72c3.43,3.15,5.15,7.54,5.15,13.16v0.17h-20.75c-9.34,0-16.87,1.13-22.61,3.37
			c-5.74,2.25-9.93,5.43-12.57,9.53c-2.64,4.11-3.96,8.8-3.96,14.09c0,5.17,1.38,9.84,4.13,14c2.75,4.16,6.66,7.45,11.73,9.87
			c5.06,2.42,11.08,3.63,18.05,3.63c7.99,0,14.51-1.54,19.57-4.64c3.43-2.09,6.11-4.78,8.1-8.04v0c0,6.26,5.07,11.33,11.33,11.33
			h13.3v-51.8C719.75,308.19,715.92,298.01,708.28,291.49z M685.92,354.42c-3.54,2.02-7.57,3.04-12.06,3.04
			c-4.5,0-8.07-0.98-10.71-2.95c-2.64-1.97-3.96-4.64-3.96-8.01c0-3.04,1.15-5.57,3.46-7.59c2.3-2.02,6.55-3.04,12.74-3.04h18.05
			v9.28C691.97,349.3,689.46,352.39,685.92,354.42z"/>
		<path class="st0" d="M818.03,286c-5.68-2.87-12.12-4.3-19.32-4.3c-7.76,0-14.68,1.63-20.75,4.89c-3.06,1.64-5.75,3.64-8.1,5.99
			v-43.95h0c-14.54,0-26.32,11.78-26.32,26.32v72.55c0,14.54,11.78,26.32,26.32,26.32h0v-44.88c0-5.74,0.93-10.35,2.78-13.84
			c1.86-3.49,4.44-6.13,7.76-7.93c3.32-1.8,7.06-2.7,11.22-2.7c5.85,0,10.38,1.74,13.58,5.23c3.21,3.49,4.81,8.89,4.81,16.2v47.92
			h26.32v-51.96c0-9.22-1.63-16.79-4.89-22.69C828.17,293.26,823.7,288.87,818.03,286z"/>
		<path class="st0" d="M609.02,268.54c-4.16-6.41-10.07-11.33-17.72-14.76c-7.65-3.43-16.76-5.15-27.33-5.15h-14.84
			c-12.3,0-22.27,9.97-22.27,22.27l0,0h27.5h5.5h2.59c8.32,0,14.62,1.77,18.9,5.31c4.27,3.54,6.41,8.58,6.41,15.1
			c0,6.52-2.14,11.59-6.41,15.18c-4.28,3.6-10.57,5.4-18.9,5.4h-0.26l-2.05-0.01l0,0h-23.63c-5.33,0-9.65,4.32-9.65,9.65v24.93
			c0,15.19,12.31,27.5,27.5,27.5l0,0v-39.8h9.61c10.57,0,19.68-1.74,27.33-5.23c7.65-3.49,13.55-8.41,17.72-14.76
			c4.16-6.35,6.24-13.97,6.24-22.86C615.27,282.54,613.18,274.95,609.02,268.54z"/>
	</g>
	<g>
		<g>
			<path class="st1" d="M702.91,433.13c-7.14-3.82-15.16-5.74-24.04-5.74c-9.22,0-17.52,2-24.89,5.99
				c-7.37,3.99-13.1,9.53-17.21,16.62c-4.11,7.09-6.16,15.13-6.16,24.13c0,9,2.14,17.01,6.41,24.04
				c4.27,7.03,10.29,12.57,18.05,16.62c7.76,4.05,16.81,6.07,27.16,6.07c8.21,0,15.46-1.27,21.76-3.8
				c6.3-2.53,11.53-6.16,15.69-10.88l-14-15.19c-3.04,2.93-6.38,5.12-10.04,6.58c-3.66,1.46-7.85,2.19-12.57,2.19
				c-5.51,0-10.24-0.98-14.17-2.95c-3.94-1.97-7.03-4.81-9.28-8.52c-1.24-2.04-2.12-4.3-2.68-6.75h68.65
				c0.11-1.12,0.22-2.33,0.34-3.63c0.11-1.29,0.17-2.45,0.17-3.46c0-9.79-2.08-18.16-6.24-25.14
				C715.71,442.36,710.06,436.96,702.91,433.13z M667.15,450.26c3.43-1.97,7.39-2.95,11.89-2.95c4.5,0,8.44,0.99,11.81,2.95
				c3.37,1.97,6.02,4.7,7.93,8.18c1.27,2.31,2.08,4.9,2.46,7.76h-44.61c0.44-2.83,1.27-5.39,2.5-7.68
				C661.04,454.98,663.71,452.23,667.15,450.26z"/>
			<path class="st1" d="M818.15,431.7c-5.68-2.87-12.12-4.3-19.32-4.3c-7.76,0-14.68,1.63-20.75,4.89
				c-3.59,1.93-6.67,4.36-9.28,7.27l0,0c0-5.97-4.84-10.81-10.81-10.81h-14.33v90.77h26.32v-44.88c0-5.74,0.93-10.35,2.78-13.84
				c1.86-3.49,4.44-6.13,7.76-7.93c3.32-1.8,7.06-2.7,11.22-2.7c5.85,0,10.38,1.74,13.58,5.23c3.21,3.49,4.81,8.89,4.81,16.2v47.92
				h26.32v-51.96c0-9.22-1.63-16.79-4.89-22.69C828.3,438.95,823.83,434.57,818.15,431.7z"/>
			<path class="st1" d="M900.9,499.94c-3.37,0-6.05-1.07-8.01-3.21c-1.97-2.14-2.95-5.12-2.95-8.94v-36.78h22.44v-20.25h-22.44l0,0
				c0-12.21-9.9-22.1-22.1-22.1h-4.39v22.1h-14v20.25h14v37.29c0,10.8,2.98,18.93,8.94,24.38c5.96,5.46,14.28,8.18,24.97,8.18
				c4.05,0,7.96-0.48,11.73-1.43c3.77-0.95,6.94-2.39,9.53-4.3l-6.92-18.56C908.77,498.82,905.18,499.94,900.9,499.94z"/>
			<path class="st1" d="M998.93,473.79c0,5.4-0.93,9.9-2.78,13.5c-1.86,3.6-4.36,6.3-7.51,8.1c-3.15,1.8-6.75,2.7-10.8,2.7
				c-5.85,0-10.38-1.77-13.58-5.31c-3.21-3.54-4.81-9.14-4.81-16.79v-47.24h-26.32v51.29c0,9.22,1.63,16.87,4.89,22.95
				c3.26,6.07,7.82,10.57,13.67,13.5c5.85,2.93,12.6,4.39,20.25,4.39c6.97,0,13.38-1.6,19.23-4.81c3.46-1.89,6.43-4.34,8.94-7.32
				v10.78h24.97V454.9c0-14.44-11.71-26.15-26.15-26.15h0V473.79z"/>
			<path class="st1" d="M1074.68,440.67L1074.68,440.67c0-6.59-5.34-11.93-11.93-11.93h-13.21v90.77h26.32v-42.85
				c0-8.66,2.19-15.07,6.58-19.23c4.39-4.16,10.29-6.24,17.72-6.24c0.9,0,1.83,0.06,2.78,0.17c0.95,0.11,1.94,0.28,2.95,0.51V427.4
				c-8.55,0-15.8,1.66-21.76,4.98C1080.3,434.5,1077.16,437.27,1074.68,440.67z"/>
			<path class="st1" d="M1203.41,449.33c-4.16-6.97-9.81-12.37-16.96-16.2c-7.14-3.82-15.16-5.74-24.04-5.74
				c-9.22,0-17.52,2-24.89,5.99c-7.37,3.99-13.1,9.53-17.21,16.62c-4.11,7.09-6.16,15.13-6.16,24.13c0,9,2.14,17.01,6.41,24.04
				c4.27,7.03,10.29,12.57,18.05,16.62c7.76,4.05,16.81,6.07,27.16,6.07c8.21,0,15.46-1.27,21.76-3.8
				c6.3-2.53,11.53-6.16,15.69-10.88l-14-15.19c-3.04,2.93-6.38,5.12-10.04,6.58c-3.66,1.46-7.85,2.19-12.57,2.19
				c-5.51,0-10.24-0.98-14.17-2.95c-3.94-1.97-7.03-4.81-9.28-8.52c-1.24-2.04-2.12-4.3-2.68-6.75h68.65
				c0.11-1.12,0.51-6.07,0.51-7.09C1209.65,464.68,1207.57,456.3,1203.41,449.33z M1150.69,450.26c3.43-1.97,7.39-2.95,11.89-2.95
				c4.5,0,8.44,0.99,11.81,2.95c3.37,1.97,6.02,4.7,7.93,8.18c1.27,2.31,2.08,4.9,2.46,7.76h-44.61c0.44-2.83,1.27-5.39,2.5-7.68
				C1144.58,454.98,1147.26,452.23,1150.69,450.26z"/>
		</g>
		<path class="st1" d="M614.19,408.67l-41.03,77.1l-14.49-43.94c-2.65-6.63-9.06-10.97-16.2-10.97h-17.22l33.42,88.66h26.99
			l43.6-86.47c5.64-11.18-2.49-24.38-15.01-24.38H614.19z"/>
	</g>
</g>
</svg>
