<?xml version="1.0" encoding="utf-8"?>
<!-- Generator: Adobe Illustrator 26.3.1, SVG Export Plug-In . SVG Version: 6.00 Build 0)  -->
<svg version="1.1" id="Layer_1" xmlns="http://www.w3.org/2000/svg" xmlns:xlink="http://www.w3.org/1999/xlink" x="0px" y="0px"
	 viewBox="0 0 1366 768" style="enable-background:new 0 0 1366 768;" xml:space="preserve">
<style type="text/css">
	.st0{fill:#D3A940;}
	.st1{fill:#012335;}
</style>
<g>
	<g>
		<circle class="st0" cx="895.63" cy="603.57" r="30.88"/>
		<g>
			<path class="st1" d="M903.61,322.66l-196.5,196.5c-13.72,13.72-35.97,13.72-49.69,0l-59.48-59.48
				c-14.37-14.37-37.68-14.37-52.05,0l-29.25,29.25l131.28,131.28c18.97,18.97,49.73,18.97,68.69,0l20.93-20.93l166.06-166.06
				C934.14,402.69,934.14,353.19,903.61,322.66L903.61,322.66z"/>
			<path class="st0" d="M648.66,399.47c18.93,18.93,49.61,18.97,68.59,0.08l104.33-103.82c15.25-15.25,15.25-39.98,0-55.24
				l-27.66-27.66l-0.07,0.07l-55.56-55.56c-30.53-30.53-80.03-30.53-110.56,0l0,0l99.3,99.3c6.38,6.38,6.38,16.71,0,23.09
				l-32.23,32.23c-6.38,6.38-16.71,6.38-23.09,0l-71.84-71.84c-15.07-15.07-39.51-15.09-54.61-0.04l-83.59,83.33
				c-30.53,30.53-30.53,80.03,0,110.56l0,0l85.92-85.92c13.71-13.71,35.94-13.71,49.65,0L648.66,399.47z"/>
		</g>
	</g>
</g>
</svg>
